<svg width="31" height="31" viewBox="0 0 31 31" fill="none" xmlns="http://www.w3.org/2000/svg">
<path fill-rule="evenodd" clip-rule="evenodd" d="M10.9097 0H9.62622V3.29787H10.9097V0ZM7.53797 9.86905L10.2689 7.06248L30.8039 28.1768L28.0817 30.9833L7.53797 9.86905ZM12.8358 11.5663L11.9202 12.5073L28.0817 29.1178L28.9973 28.1768L12.8358 11.5663ZM9.62622 16.8191H10.9097V20.117H9.62622V16.8191ZM20.5359 9.23404H17.3272V10.5532H20.5359V9.23404ZM0 9.23404H3.20874V10.5532H0V9.23404ZM5.16299 5.76072L6.07055 4.82795L3.80165 2.49603L2.89409 3.4288L5.16299 5.76072ZM3.80148 17.6542L2.89403 16.7215L5.16293 14.3896L6.07038 15.3222L3.80148 17.6542ZM14.4656 4.82841L15.3732 5.76118L17.642 3.42931L16.7345 2.49654L14.4656 4.82841Z" fill="#6FB048"/>
</svg>