<svg width="30" height="30" viewBox="0 0 30 30" fill="none" xmlns="http://www.w3.org/2000/svg">
<path fill-rule="evenodd" clip-rule="evenodd" d="M14.625 0C14.618 0 14.618 0 14.6109 0C14.6109 0 14.6109 0 14.6039 0C14.5969 0 14.5898 0 14.5898 0C6.525 0.0210938 0 6.56016 0 14.625C0 22.6898 6.525 29.2289 14.5898 29.25C14.5969 29.25 14.6039 29.25 14.6039 29.25H14.6109C14.618 29.25 14.618 29.25 14.625 29.25C22.7039 29.25 29.25 22.7039 29.25 14.625C29.25 6.54609 22.7039 0 14.625 0ZM15.2086 8.75391C16.7625 8.71172 18.2672 8.50781 19.7227 8.15625C20.1586 9.87891 20.4328 11.8687 20.475 14.0484H15.2086V8.75391ZM15.2086 7.57969V1.26562C16.7836 1.70156 18.3867 3.80391 19.3992 7.03125C18.0492 7.35469 16.65 7.5375 15.2086 7.57969ZM14.0414 1.25156V7.58672C12.5859 7.54453 11.1727 7.35469 9.81563 7.02422C10.8422 3.77578 12.4523 1.65937 14.0414 1.25156ZM14.0414 8.75391V14.0414H8.73984C8.78203 11.8617 9.05625 9.87187 9.49219 8.14922C10.9547 8.50078 12.4805 8.71172 14.0414 8.75391ZM7.55859 14.0414H1.18828C1.31484 11.032 2.43984 8.27578 4.23281 6.09609C5.53359 6.81328 6.91875 7.40391 8.36719 7.83984C7.88906 9.70312 7.60781 11.8055 7.55859 14.0414ZM7.55859 15.2086C7.60078 17.4375 7.88203 19.5469 8.36016 21.4102C6.91172 21.8531 5.53359 22.4367 4.22578 23.1539C2.43281 20.9742 1.31484 18.218 1.18125 15.2086H7.55859ZM8.73984 15.2086H14.0414V20.4891C12.4805 20.5312 10.9547 20.7422 9.49219 21.1008C9.05625 19.3781 8.78203 17.3883 8.73984 15.2086ZM14.0414 21.6633V28.0055C12.4523 27.5906 10.8422 25.4812 9.81563 22.2328C11.1727 21.8953 12.5859 21.7055 14.0414 21.6633ZM15.2086 27.9844V21.6562C16.65 21.6984 18.0492 21.8883 19.4062 22.2117C18.3867 25.4461 16.7906 27.5484 15.2086 27.9844ZM15.2086 20.4891V15.2086H20.475C20.4328 17.3813 20.1586 19.3711 19.7227 21.0938C18.2672 20.7422 16.7625 20.5312 15.2086 20.4891ZM21.6492 15.2086H28.0617C27.9352 18.218 26.8102 20.9672 25.0172 23.1539C23.7023 22.4297 22.3102 21.8391 20.8477 21.3961C21.3258 19.5328 21.607 17.4375 21.6492 15.2086ZM21.6492 14.0414C21.607 11.8125 21.3258 9.71016 20.8547 7.84688C22.3172 7.40391 23.7094 6.81328 25.0172 6.09609C26.8102 8.27578 27.9352 11.032 28.0617 14.0484H21.6492V14.0414ZM24.2156 5.19609C23.0484 5.81484 21.825 6.32812 20.5383 6.71484C19.8562 4.51406 18.893 2.72109 17.7609 1.53984C20.25 2.1375 22.4719 3.43125 24.2156 5.19609ZM11.4469 1.55391C10.3148 2.72813 9.35859 4.52109 8.68359 6.70781C7.41094 6.32109 6.19453 5.81484 5.04141 5.19609C6.76406 3.43828 8.97188 2.15156 11.4469 1.55391ZM5.03438 24.0469C6.1875 23.4281 7.41094 22.9219 8.67656 22.5352C9.35859 24.7289 10.3148 26.5148 11.4469 27.6961C8.97188 27.0984 6.76406 25.8117 5.03438 24.0469ZM17.7609 27.7102C18.9 26.5289 19.8562 24.7359 20.5453 22.5281C21.832 22.9148 23.0555 23.4281 24.2227 24.0469C22.4789 25.8188 20.25 27.1125 17.7609 27.7102Z" fill="#6FB048"/>
</svg>