<svg width="52" height="52" viewBox="0 0 52 52" fill="none" xmlns="http://www.w3.org/2000/svg">
<path fill-rule="evenodd" clip-rule="evenodd" d="M47.625 8.375C47.625 9.19875 47.3758 9.96425 46.949 10.6005C50.123 14.9113 52 20.2361 52 26C52 40.3596 40.3591 52 26 52C11.6406 52 0 40.3596 0 26C0 11.6406 11.6406 0 26 0C31.7638 0 37.0886 1.87688 41.3994 5.05113C42.0358 4.62425 42.8013 4.375 43.625 4.375C45.8338 4.375 47.625 6.16563 47.625 8.375ZM35.3457 48.1258C38.2049 46.9164 40.773 45.1847 42.9787 42.979C45.1847 40.7733 46.9163 38.2051 48.1256 35.346C49.3773 32.387 50.0119 29.2424 50.0119 26C50.0119 22.7575 49.3773 19.6131 48.1256 16.6541C47.4149 14.9734 46.522 13.3941 45.4598 11.929C44.91 12.2134 44.2866 12.375 43.625 12.375C41.4159 12.375 39.625 10.5844 39.625 8.375C39.625 7.71338 39.7866 7.08988 40.071 6.54012C38.6058 5.478 37.0265 4.58512 35.3457 3.87425C32.3867 2.62275 29.2424 1.98812 26 1.98812C22.7575 1.98812 19.6131 2.62275 16.654 3.87437C13.7949 5.08362 11.2269 6.81525 9.021 9.02112C6.81512 11.227 5.0835 13.795 3.87425 16.6541C2.62275 19.6131 1.98812 22.7575 1.98812 26C1.98812 29.2425 2.62275 32.387 3.87437 35.346C5.08362 38.2051 6.81525 40.7731 9.02112 42.979C11.227 45.1849 13.795 46.9164 16.6541 48.1258C19.6131 49.3773 22.7575 50.0119 26 50.0119C29.2425 50.0119 32.3867 49.3773 35.3457 48.1258Z" fill="#6FB048"/>
</svg>