<svg width="15" height="14" viewBox="0 0 15 14" fill="none" xmlns="http://www.w3.org/2000/svg">
<path opacity="0.7" fill-rule="evenodd" clip-rule="evenodd" d="M13.9482 9.97656C13.3778 9.39062 11.7567 8.29297 10.6942 8.29297C10.4482 8.29297 10.2333 8.34766 10.0575 8.46094C9.538 8.79297 9.12394 9.05078 8.92472 9.05078C8.81534 9.05078 8.69815 8.95312 8.44034 8.73047L8.39737 8.69141C7.68253 8.07031 7.53019 7.91016 7.25284 7.62109L7.18253 7.54688C7.13175 7.49609 7.08878 7.44922 7.04581 7.40625C6.80362 7.15625 6.62784 6.97656 6.00675 6.27344L5.9794 6.24219C5.68253 5.90625 5.48722 5.6875 5.4755 5.52734C5.46378 5.37109 5.6005 5.11719 5.94815 4.64453C6.37003 4.07422 6.38565 3.37109 5.99894 2.55469C5.69034 1.91016 5.18644 1.29297 4.74112 0.75L4.70206 0.703125C4.31925 0.234375 3.87394 0 3.37784 0C2.82706 0 2.37003 0.296875 2.12784 0.453125C2.10831 0.464844 2.08878 0.480469 2.06925 0.492188C1.52628 0.835938 1.13175 1.30859 0.98331 1.78906C0.760654 2.51172 0.612217 3.44922 1.67862 5.39844C2.6005 7.08594 3.43644 8.21875 4.76456 9.58203C6.01456 10.8633 6.56925 11.2773 7.81144 12.1758C9.19425 13.1758 10.5224 13.75 11.4521 13.75C12.3153 13.75 12.995 13.75 13.9638 12.582C14.9794 11.3555 14.5575 10.6055 13.9482 9.97656Z" fill="white"/>
</svg>