<svg width="36" height="34" viewBox="0 0 36 34" fill="none" xmlns="http://www.w3.org/2000/svg">
<path fill-rule="evenodd" clip-rule="evenodd" d="M29.5232 9.37366C29.5192 9.41987 29.5152 9.46607 29.5152 9.51429C33.1554 9.52232 36 12.4554 36 16.0714C36 19.6795 33.0348 22.6688 29.4188 22.6688H21.3027V21.383H29.1134L29.3705 21.375C32.3196 21.3589 34.7143 18.9643 34.7143 16.0473C34.7143 13.1223 32.392 10.7518 29.4429 10.7116L28.2214 10.7036C28.2214 10.7036 28.2375 10.1411 28.2375 9.08839C28.2375 4.68482 24.5732 1.24554 20.1295 1.24554C17.0518 1.24554 14.1991 3.02946 12.8652 5.79375L12.3429 6.88661L11.258 6.34821C10.7598 6.09911 10.2134 5.97054 9.65893 5.97054C7.90714 5.97054 6.42054 7.37679 6.13125 9.08839L6.01071 9.7875L5.33571 10.0125C2.925 10.8321 1.30179 12.9295 1.30179 15.4527C1.30179 18.7071 3.97768 21.375 7.26429 21.375H14.5527V22.6607H7.2C3.22232 22.6607 0 19.4384 0 15.4929C0 12.3589 2.04107 9.83571 4.86964 8.87143C5.25536 6.62143 7.22411 4.74911 9.60268 4.74911C10.3821 4.74911 11.1054 4.93393 11.7562 5.25536C13.2509 2.15357 16.4411 0 20.1455 0C25.2804 0 29.5312 4.13036 29.5312 9.23304C29.5312 9.28125 29.5272 9.32746 29.5232 9.37366ZM12.0295 27.8518L12.9616 26.9357L17.3571 31.2589V11.8045H18.675V31.2589L23.0705 26.9357L24.0027 27.8518L18.0161 33.75L12.0295 27.8518Z" fill="#6FB048"/>
</svg>