<svg width="24" height="38" viewBox="0 0 24 38" fill="none" xmlns="http://www.w3.org/2000/svg">
<path fill-rule="evenodd" clip-rule="evenodd" d="M12 0C18.4917 0 24 5.25833 24 11.7417C24 14.3333 22.9 16.6667 21.4917 18.6667H21.5C21.2676 18.9865 21.0373 19.2938 20.8093 19.5982L20.8091 19.5985C20.1459 20.4836 19.5012 21.344 18.875 22.4167C17.2217 25.2573 17.3033 27.9015 17.3353 28.9373L17.3353 28.9375C17.3388 29.0502 17.3417 29.1439 17.3417 29.2167V29.3333H6.675V29.2167C6.67418 29.1565 6.67621 29.0724 6.67876 28.9668C6.70202 28.0051 6.76853 25.2549 5.11667 22.4167C4.49044 21.344 3.84576 20.4836 3.18263 19.5985L3.18261 19.5985L3.18258 19.5985C2.95446 19.294 2.72416 18.9866 2.49167 18.6667H2.51667C1.1 16.6667 0 14.3333 0 11.75C0 5.25833 5.50833 0 12 0ZM19.8458 18.6292C19.8687 18.5979 19.8917 18.5667 19.9167 18.5333L20.4083 17.8583C21.725 16.0583 22.6667 13.9417 22.6667 11.7333C22.6667 8.95 21.3333 6.33333 19.3667 4.36667C17.4 2.4 14.7833 1.30833 12 1.30833C9.21667 1.30833 6.6 2.4 4.63333 4.36667C2.66667 6.33333 1.33333 8.95 1.33333 11.7333C1.33333 13.9417 2.275 16.0667 3.59167 17.8667L5.14167 20H5.125C5.50833 20.5 5.89167 21.1083 6.26667 21.75C7.68333 24.1917 7.96667 26.5667 8.00833 28H9.33333V18.6667L6.66667 13.3333H8.05L10.6667 18.6667V28H13.3333V18.6667L15.95 13.3333H17.3333L14.6667 18.6667V27.9917H15.9833C16.0167 26.5583 16.275 24.2083 17.7167 21.7333C18.3991 20.5765 19.0982 19.6358 19.7724 18.7285L19.775 18.725C19.7999 18.6918 19.8228 18.6606 19.8456 18.6295L19.8458 18.6292ZM14.6667 37.3333V36H9.33333V37.3333H14.6667ZM16 33.3333V34.6667H8V33.3333H16ZM16 32V30.6667H8V32H16Z" fill="#6FB048"/>
</svg>