<svg width="46" height="57" viewBox="0 0 46 57" fill="none" xmlns="http://www.w3.org/2000/svg">
<path fill-rule="evenodd" clip-rule="evenodd" d="M30.7065 18.1942L44.6753 43.0606C45.6855 45.0846 46.0372 47.0448 45.9968 48.8571C45.894 53.4886 42.8066 57 38.4705 57H7.89676C3.55209 57 0.249528 53.5025 0.122759 48.8571C0.073533 47.0522 0.563284 45.0743 1.56835 43.0606L15.413 18.1942V2.03571H13.5014V0H15.4144H17.3247V2.03571V4.07143H23.0598V6.10714H17.3247V10.1786H21.1481V12.2143H17.3247V16.2857H23.0598V18.3214H17.3247V18.754L17.0862 19.2431L15.3314 22.3929H21.1481V24.4286H14.1968L3.26581 44.0422C1.69297 47.2222 1.57254 49.5562 2.994 52.0755C4.01842 53.8911 5.80549 54.9643 7.89688 54.9643H38.4705C40.5434 54.9643 42.3052 53.9039 43.3171 52.1103C43.8652 51.1394 44.0701 50.0454 44.0991 48.8571C44.1365 47.3295 43.8302 45.6587 43.0237 44.0278L29.0952 19.2386L28.7949 18.7563V2.03571V0H30.7055H32.6182V2.03571H30.7065V18.1942ZM4.10493 47.8604C4.10493 46.6574 4.58631 44.933 5.41156 43.5918L13.9195 28.5H32.2274L40.8104 43.6046C41.64 44.9526 42.0486 46.6373 42.0155 47.8445C41.9311 50.9296 40.1185 52.9286 36.5575 52.9286H9.56303C5.99511 52.9286 4.10493 51.37 4.10493 47.8604ZM31.1492 30.5357L39.1745 44.6419L39.1925 44.6577L39.2115 44.6809C39.8546 45.7257 40.1252 47.006 40.1048 47.7573C40.0774 48.7547 39.8088 49.5361 39.3063 50.0214C38.7359 50.5721 37.7854 50.893 36.5573 50.893H9.56291C8.24098 50.893 7.26053 50.6085 6.72764 50.1301C6.55177 49.9723 6.01625 49.4757 6.01625 47.8287C6.01625 47.0726 6.35761 45.7443 7.01021 44.6839L7.03136 44.6455L7.0512 44.6402L15.0025 30.5357H31.1492Z" fill="#6FB048"/>
</svg>